# xmcd
#
# Track frame offsets: 
#        150
#        15827
#        39612
#        60555
#        76892
#        93837
#        114472
#        132757
#        150592
#        165760
#        183005
#        202115
#        216172
#        233737
#
# Disc length: 3389 seconds
#
# Revision: 12
# Processed by: cddbd v1.5.2PL0 Copyright (c) Steve Scherf et al.
# Submitted via: ExactAudioCopyFreeDBPlugin 1.0
#
DISCID=9e0d3b0e
DTITLE=中島みゆき - Singles disc2
DYEAR=1985
DGENRE=J-Pop
TTITLE0=あの娘
TTITLE1=波の上
TTITLE2=横恋慕
TTITLE3=忘れな草をもう一度
TTITLE4=誘惑
TTITLE5=やさしい女
TTITLE6=悪女
TTITLE7=笑わせるじゃないか
TTITLE8=あした天気になれ
TTITLE9=杏村から
TTITLE10=ひとり上手
TTITLE11=悲しみに
TTITLE12=かなしみ笑い
TTITLE13=霧に走る
EXTD=YEAR: 1985
EXTT0=
EXTT1=
EXTT2=
EXTT3=
EXTT4=
EXTT5=
EXTT6=
EXTT7=
EXTT8=
EXTT9=
EXTT10=
EXTT11=
EXTT12=
EXTT13=
PLAYORDER=
